<svg xmlns="http://www.w3.org/2000/svg" width="16.141" height="17.799" viewBox="0 0 16.141 17.799">
  <path id="Icon_simple-email" data-name="Icon simple-email" d="M17.8,8.215a9.179,9.179,0,0,1-.3,1.991,5.761,5.761,0,0,1-.774,1.748A4.085,4.085,0,0,1,15.417,13.2a3.7,3.7,0,0,1-1.916.473,2.778,2.778,0,0,1-1.386-.339,2.373,2.373,0,0,1-.937-.96,2.968,2.968,0,0,1-2.511,1.261,2.554,2.554,0,0,1-2.192-1.179,3.859,3.859,0,0,1-.545-1.366A5.89,5.89,0,0,1,5.858,9.3,8.277,8.277,0,0,1,6.4,7.123a5.931,5.931,0,0,1,1-1.672A4.244,4.244,0,0,1,8.784,4.386a3.849,3.849,0,0,1,1.677-.373,5.216,5.216,0,0,1,1,.086,4.107,4.107,0,0,1,.779.234,4.21,4.21,0,0,1,.645.34c.2.127.395.258.592.392l-.487,5.606a1.863,1.863,0,0,0,.014.656.918.918,0,0,0,.2.4.721.721,0,0,0,.325.211,1.206,1.206,0,0,0,1.141-.225,2.432,2.432,0,0,0,.612-.779,5.014,5.014,0,0,0,.412-1.17,8.028,8.028,0,0,0,.18-1.457,9.311,9.311,0,0,0-.229-2.723A5.412,5.412,0,0,0,14.64,3.482a4.679,4.679,0,0,0-1.806-1.357A6.556,6.556,0,0,0,10.2,1.644a5.811,5.811,0,0,0-2.6.567A5.972,5.972,0,0,0,5.621,3.784,7.548,7.548,0,0,0,4.327,6.15,10.661,10.661,0,0,0,3.782,9.1,9.8,9.8,0,0,0,4.06,12.1a5.432,5.432,0,0,0,1.1,2.156,4.586,4.586,0,0,0,1.862,1.295,7.142,7.142,0,0,0,2.569.429,8.8,8.8,0,0,0,1.686-.181c.278-.056.542-.122.793-.2a5.969,5.969,0,0,0,.683-.245l.353,1.586a3.914,3.914,0,0,1-.764.378,7.355,7.355,0,0,1-.9.261,8.813,8.813,0,0,1-1.886.211,9.893,9.893,0,0,1-3.439-.554A6.33,6.33,0,0,1,3.6,15.6a6.923,6.923,0,0,1-1.5-2.722A11.609,11.609,0,0,1,1.68,9.1,11.522,11.522,0,0,1,2.4,5.471,8.974,8.974,0,0,1,4.144,2.59,7.937,7.937,0,0,1,6.8.69,8.32,8.32,0,0,1,10.243,0a8.686,8.686,0,0,1,3.335.6,6.486,6.486,0,0,1,2.407,1.679,6.892,6.892,0,0,1,1.428,2.595A9.921,9.921,0,0,1,17.8,8.215ZM8.248,9.3a3.784,3.784,0,0,0,.2,1.876,1.006,1.006,0,0,0,.968.634,1.069,1.069,0,0,0,.331-.061,1.182,1.182,0,0,0,.382-.229,2.036,2.036,0,0,0,.387-.467,3.585,3.585,0,0,0,.356-.79l.38-4.355a2.273,2.273,0,0,0-.592-.078,2.046,2.046,0,0,0-.984.226,1.949,1.949,0,0,0-.7.663,3.893,3.893,0,0,0-.463,1.09A9.246,9.246,0,0,0,8.249,9.3Z" transform="translate(-1.67)"/>
</svg>
