<svg xmlns="http://www.w3.org/2000/svg" width="2208" height="657.852" viewBox="0 0 2208 657.852">
  <g id="pattern" opacity="0.5">
    <g id="pattern-2" data-name="pattern" transform="translate(924 -1774.363)" opacity="0.1">
      <g id="Pattern_base" data-name="Pattern base" transform="translate(548 1774.363)">
        <path id="Path_58088" data-name="Path 58088" d="M59.091-151.919v-24.7H86.671q7.754,0,12.3-4.388a15.126,15.126,0,0,0,4.55-11.4,16.346,16.346,0,0,0-2.066-8.288,14.031,14.031,0,0,0-5.8-5.549,19.2,19.2,0,0,0-8.985-1.95H59.091v-23.866H84.628a16.8,16.8,0,0,0,10.726-3.3q4.179-3.3,4.179-10.122T95.354-255.6a16.8,16.8,0,0,0-10.726-3.3H59.091v-24.7H92.568q12.351,0,21.289,4.62a34.173,34.173,0,0,1,13.767,12.444,32.952,32.952,0,0,1,4.829,17.667q0,13.14-8.938,21.777T97.35-216.274l.139-11.283q18.8,2.229,28.881,12.165t10.076,24.98a36.135,36.135,0,0,1-5.549,19.85,37.848,37.848,0,0,1-15.671,13.674q-10.122,4.968-23.912,4.968ZM65.5-283.6v0Z" transform="translate(288.724 697.124)" fill="#dedede"/>
        <path id="Path_58110" data-name="Path 58110" d="M59.091-151.919v-24.7H86.671q7.754,0,12.3-4.388a15.126,15.126,0,0,0,4.55-11.4,16.346,16.346,0,0,0-2.066-8.288,14.031,14.031,0,0,0-5.8-5.549,19.2,19.2,0,0,0-8.985-1.95H59.091v-23.866H84.628a16.8,16.8,0,0,0,10.726-3.3q4.179-3.3,4.179-10.122T95.354-255.6a16.8,16.8,0,0,0-10.726-3.3H59.091v-24.7H92.568q12.351,0,21.289,4.62a34.173,34.173,0,0,1,13.767,12.444,32.952,32.952,0,0,1,4.829,17.667q0,13.14-8.938,21.777T97.35-216.274l.139-11.283q18.8,2.229,28.881,12.165t10.076,24.98a36.135,36.135,0,0,1-5.549,19.85,37.848,37.848,0,0,1-15.671,13.674q-10.122,4.968-23.912,4.968ZM65.5-283.6v0Z" transform="translate(-10.511 283.621)" fill="#dedede"/>
        <path id="Path_58089" data-name="Path 58089" d="M7.889-172.445l51.539-52.561a68.119,68.119,0,0,0,6.245-7.22,24.907,24.907,0,0,0,3.436-6.2,17.815,17.815,0,0,0,1.045-6.036q0-7.058-4.55-11.144t-12.026-4.086a22.1,22.1,0,0,0-12.862,4.016q-5.8,4.016-11.794,13.3L7.1-261.734a53.975,53.975,0,0,1,20.5-19.757Q40.067-288.2,56.132-288.2q14.3,0,24.725,5.177A37.608,37.608,0,0,1,96.923-268.3q5.641,9.542,5.641,22.543a49.013,49.013,0,0,1-2.02,14.371,46.08,46.08,0,0,1-6.524,13.024,98.264,98.264,0,0,1-11.84,13.558l-34.127,33.2Z" transform="translate(98.873 572.069)" fill="#dedede"/>
        <path id="Path_58105" data-name="Path 58105" d="M7.889-172.445l51.539-52.561a68.119,68.119,0,0,0,6.245-7.22,24.907,24.907,0,0,0,3.436-6.2,17.815,17.815,0,0,0,1.045-6.036q0-7.058-4.55-11.144t-12.026-4.086a22.1,22.1,0,0,0-12.862,4.016q-5.8,4.016-11.794,13.3L7.1-261.734a53.975,53.975,0,0,1,20.5-19.757Q40.067-288.2,56.132-288.2q14.3,0,24.725,5.177A37.608,37.608,0,0,1,96.923-268.3q5.641,9.542,5.641,22.543a49.013,49.013,0,0,1-2.02,14.371,46.08,46.08,0,0,1-6.524,13.024,98.264,98.264,0,0,1-11.84,13.558l-34.127,33.2Z" transform="translate(551.951 366.974)" fill="#dedede"/>
        <path id="Subtraction_64" data-name="Subtraction 64" d="M22.045,45.486h0l-.606,0L0,26.467A58.466,58.466,0,0,1,9.143,15,51.6,51.6,0,0,1,20.5,6.711,54.4,54.4,0,0,1,33.867,1.678,66.368,66.368,0,0,1,49.031,0,65.294,65.294,0,0,1,62.363,1.293,47.49,47.49,0,0,1,73.756,5.176a39.887,39.887,0,0,1,9.231,6.27,36.928,36.928,0,0,1,6.838,8.449A39.031,39.031,0,0,1,94.054,30.3a50.163,50.163,0,0,1,1.409,12.137c0,1.021-.027,2.045-.08,3.045H62.971c.055-.572.083-1.16.083-1.746a16.665,16.665,0,0,0-1.136-6.314,13.107,13.107,0,0,0-3.413-4.83,15.156,15.156,0,0,0-5.283-3.064,20.976,20.976,0,0,0-6.742-1.021,22.1,22.1,0,0,0-12.864,4.018c-3.78,2.617-7.672,6.979-11.57,12.959Z" transform="translate(115.708 456.62)" fill="#dedede"/>
        <path id="Subtraction_74" data-name="Subtraction 74" d="M22.045,45.486h0l-.606,0L0,26.467A58.466,58.466,0,0,1,9.143,15,51.6,51.6,0,0,1,20.5,6.711,54.4,54.4,0,0,1,33.867,1.678,66.368,66.368,0,0,1,49.031,0,65.294,65.294,0,0,1,62.363,1.293,47.49,47.49,0,0,1,73.756,5.176a39.887,39.887,0,0,1,9.231,6.27,36.928,36.928,0,0,1,6.838,8.449A39.031,39.031,0,0,1,94.054,30.3a50.163,50.163,0,0,1,1.409,12.137c0,1.021-.027,2.045-.08,3.045H62.971c.055-.572.083-1.16.083-1.746a16.665,16.665,0,0,0-1.136-6.314,13.107,13.107,0,0,0-3.413-4.83,15.156,15.156,0,0,0-5.283-3.064,20.976,20.976,0,0,0-6.742-1.021,22.1,22.1,0,0,0-12.864,4.018c-3.78,2.617-7.672,6.979-11.57,12.959Z" transform="translate(252.352 5.084)" fill="#dedede"/>
        <path id="Path_58090" data-name="Path 58090" d="M81.569-152.29a73.948,73.948,0,0,1-28.022-5.2,69.435,69.435,0,0,1-22.427-14.464,65.617,65.617,0,0,1-14.9-21.777,68.325,68.325,0,0,1-5.316-27,68.286,68.286,0,0,1,5.247-26.977,65.85,65.85,0,0,1,14.742-21.614A67.2,67.2,0,0,1,53.2-283.692a74.954,74.954,0,0,1,28-5.108,74.954,74.954,0,0,1,28,5.108,67.462,67.462,0,0,1,22.334,14.371A65.428,65.428,0,0,1,146.3-247.615a68.964,68.964,0,0,1,5.247,27.07,68.6,68.6,0,0,1-5.247,26.931,66.109,66.109,0,0,1-14.742,21.753,67.308,67.308,0,0,1-22.241,14.44A73.61,73.61,0,0,1,81.569-152.29ZM81.2-181.914a37.31,37.31,0,0,0,19.292-4.829,32.672,32.672,0,0,0,12.676-13.581,44.2,44.2,0,0,0,4.481-20.407,46,46,0,0,0-2.554-15.74,34.6,34.6,0,0,0-7.383-12.165A32.446,32.446,0,0,0,96.2-256.46a39.527,39.527,0,0,0-15-2.716,37.791,37.791,0,0,0-19.246,4.736,32.2,32.2,0,0,0-12.676,13.4A43.631,43.631,0,0,0,44.8-220.731a47.445,47.445,0,0,0,2.554,16,34.359,34.359,0,0,0,7.359,12.258,32.575,32.575,0,0,0,11.515,7.824A39.279,39.279,0,0,0,81.2-181.914Z" transform="translate(144.374 439.135)" fill="#dedede"/>
        <path id="Subtraction_65" data-name="Subtraction 65" d="M70.67,68.484a80.169,80.169,0,0,1-14.6-1.3,69.746,69.746,0,0,1-13.425-3.9,72.257,72.257,0,0,1-12.025-6.217,68.068,68.068,0,0,1-10.4-8.246A65.3,65.3,0,0,1,11.7,38.744a67.635,67.635,0,0,1-6.384-11.7A65.972,65.972,0,0,1,1.329,14.035,72.617,72.617,0,0,1,0,.043V0H33.893V.043a47.626,47.626,0,0,0,2.556,16,34.543,34.543,0,0,0,7.361,12.256,32.625,32.625,0,0,0,11.512,7.824A39.524,39.524,0,0,0,70.3,38.859a42.894,42.894,0,0,0,10.37-1.207,33.732,33.732,0,0,0,8.923-3.621,32.533,32.533,0,0,0,7.266-5.809,34.3,34.3,0,0,0,5.41-7.773,39.243,39.243,0,0,0,3.361-9.479A51.139,51.139,0,0,0,106.746.043V0h33.893V.018c0,.07,0,.141,0,.211a73.334,73.334,0,0,1-1.311,13.977,65.719,65.719,0,0,1-3.935,12.953,67.786,67.786,0,0,1-6.309,11.66,66.051,66.051,0,0,1-8.434,10.094,66.313,66.313,0,0,1-10.306,8.264,69.719,69.719,0,0,1-11.931,6.176A69.81,69.81,0,0,1,85.1,67.2,79.675,79.675,0,0,1,70.67,68.484Z" transform="translate(347.814 580.142)" fill="#dedede"/>
        <path id="Subtraction_67" data-name="Subtraction 67" d="M71.036,68.484h-.366a79.952,79.952,0,0,1-14.6-1.3,69.353,69.353,0,0,1-13.427-3.9,72.12,72.12,0,0,1-12.022-6.217,68.007,68.007,0,0,1-10.405-8.246A65.343,65.343,0,0,1,11.7,38.742a67.458,67.458,0,0,1-6.384-11.7A65.988,65.988,0,0,1,1.328,14.033,72.447,72.447,0,0,1,0,.043V0H33.893V.043a47.563,47.563,0,0,0,2.556,16,34.491,34.491,0,0,0,7.358,12.254A32.578,32.578,0,0,0,55.32,36.117a39.519,39.519,0,0,0,14.974,2.74c.276,0,.517,0,.741-.006V68.484Z" transform="translate(102.872 565.529)" fill="#dedede"/>
        <path id="Subtraction_71" data-name="Subtraction 71" d="M71.036,68.484h-.366a79.952,79.952,0,0,1-14.6-1.3,69.353,69.353,0,0,1-13.427-3.9,72.12,72.12,0,0,1-12.022-6.217,68.007,68.007,0,0,1-10.405-8.246A65.343,65.343,0,0,1,11.7,38.742a67.458,67.458,0,0,1-6.384-11.7A65.988,65.988,0,0,1,1.328,14.033,72.447,72.447,0,0,1,0,.043V0H33.893V.043a47.563,47.563,0,0,0,2.556,16,34.491,34.491,0,0,0,7.358,12.254A32.578,32.578,0,0,0,55.32,36.117a39.519,39.519,0,0,0,14.974,2.74c.276,0,.517,0,.741-.006V68.484Z" transform="translate(503.088 218.491)" fill="#dedede"/>
        <path id="Subtraction_69" data-name="Subtraction 69" d="M71.036,0H70.67a80.072,80.072,0,0,0-14.6,1.3A69.4,69.4,0,0,0,42.643,5.2,72.176,72.176,0,0,0,30.621,11.42a68.05,68.05,0,0,0-10.405,8.246A65.287,65.287,0,0,0,11.7,29.743a67.419,67.419,0,0,0-6.384,11.7A66.011,66.011,0,0,0,1.328,54.451,72.462,72.462,0,0,0,0,68.442v.042H33.893v-.042a47.56,47.56,0,0,1,2.556-16,34.5,34.5,0,0,1,7.358-12.255A32.575,32.575,0,0,1,55.32,32.368a39.495,39.495,0,0,1,14.975-2.742c.276,0,.517,0,.741.006V0Z" transform="translate(468.152 387.264) rotate(180)" fill="#dedede"/>
        <path id="Subtraction_76" data-name="Subtraction 76" d="M71.036,0H70.67a80.072,80.072,0,0,0-14.6,1.3A69.4,69.4,0,0,0,42.643,5.2,72.176,72.176,0,0,0,30.621,11.42a68.05,68.05,0,0,0-10.405,8.246A65.287,65.287,0,0,0,11.7,29.743a67.419,67.419,0,0,0-6.384,11.7A66.011,66.011,0,0,0,1.328,54.451,72.462,72.462,0,0,0,0,68.442v.042H33.893v-.042a47.56,47.56,0,0,1,2.556-16,34.5,34.5,0,0,1,7.358-12.255A32.575,32.575,0,0,1,55.32,32.368a39.495,39.495,0,0,1,14.975-2.742c.276,0,.517,0,.741.006V0Z" transform="translate(609.643 68.484) rotate(180)" fill="#dedede"/>
        <path id="Subtraction_73" data-name="Subtraction 73" d="M71.036,0H70.67a80.072,80.072,0,0,0-14.6,1.3A69.4,69.4,0,0,0,42.643,5.2,72.176,72.176,0,0,0,30.621,11.42a68.05,68.05,0,0,0-10.405,8.246A65.287,65.287,0,0,0,11.7,29.743a67.419,67.419,0,0,0-6.384,11.7A66.011,66.011,0,0,0,1.328,54.451,72.462,72.462,0,0,0,0,68.442v.042H33.893v-.042a47.56,47.56,0,0,1,2.556-16,34.5,34.5,0,0,1,7.358-12.255A32.575,32.575,0,0,1,55.32,32.368a39.495,39.495,0,0,1,14.975-2.742c.276,0,.517,0,.741.006V0Z" transform="translate(736 175.138) rotate(180)" fill="#dedede"/>
        <path id="Path_58094" data-name="Path 58094" d="M81.569-152.29a73.948,73.948,0,0,1-28.022-5.2,69.435,69.435,0,0,1-22.427-14.464,65.617,65.617,0,0,1-14.9-21.777,68.325,68.325,0,0,1-5.316-27,68.286,68.286,0,0,1,5.247-26.977,65.85,65.85,0,0,1,14.742-21.614A67.2,67.2,0,0,1,53.2-283.692a74.954,74.954,0,0,1,28-5.108,74.954,74.954,0,0,1,28,5.108,67.462,67.462,0,0,1,22.334,14.371A65.428,65.428,0,0,1,146.3-247.615a68.964,68.964,0,0,1,5.247,27.07,68.6,68.6,0,0,1-5.247,26.931,66.109,66.109,0,0,1-14.742,21.753,67.308,67.308,0,0,1-22.241,14.44A73.61,73.61,0,0,1,81.569-152.29ZM81.2-181.914a37.31,37.31,0,0,0,19.292-4.829,32.672,32.672,0,0,0,12.676-13.581,44.2,44.2,0,0,0,4.481-20.407,46,46,0,0,0-2.554-15.74,34.6,34.6,0,0,0-7.383-12.165A32.446,32.446,0,0,0,96.2-256.46a39.527,39.527,0,0,0-15-2.716,37.791,37.791,0,0,0-19.246,4.736,32.2,32.2,0,0,0-12.676,13.4A43.631,43.631,0,0,0,44.8-220.731a47.445,47.445,0,0,0,2.554,16,34.359,34.359,0,0,0,7.359,12.258,32.575,32.575,0,0,0,11.515,7.824A39.279,39.279,0,0,0,81.2-181.914Z" transform="translate(582.184 494.454)" fill="#dedede"/>
        <path id="Path_58091" data-name="Path 58091" d="M59.091-199v-24.7H85.185a19.64,19.64,0,0,0,8.858-1.988,15.5,15.5,0,0,0,6.418-5.932,18.21,18.21,0,0,0,2.414-9.678,18.21,18.21,0,0,0-2.414-9.678,15.5,15.5,0,0,0-6.418-5.932,19.64,19.64,0,0,0-8.858-1.988H59.091v-24.7H90.9a50.373,50.373,0,0,1,22.844,5.084,39.552,39.552,0,0,1,16.112,14.524q5.943,9.44,5.943,22.682,0,13.1-5.943,22.621a39.376,39.376,0,0,1-16.112,14.6A50.373,50.373,0,0,1,90.9-199Zm6.965-84.6Z" transform="translate(238.19 560.079)" fill="#dedede"/>
        <path id="Path_58106" data-name="Path 58106" d="M59.091-199v-24.7H85.185a19.64,19.64,0,0,0,8.858-1.988,15.5,15.5,0,0,0,6.418-5.932,18.21,18.21,0,0,0,2.414-9.678,18.21,18.21,0,0,0-2.414-9.678,15.5,15.5,0,0,0-6.418-5.932,19.64,19.64,0,0,0-8.858-1.988H59.091v-24.7H90.9a50.373,50.373,0,0,1,22.844,5.084,39.552,39.552,0,0,1,16.112,14.524q5.943,9.44,5.943,22.682,0,13.1-5.943,22.621a39.376,39.376,0,0,1-16.112,14.6A50.373,50.373,0,0,1,90.9-199Zm6.965-84.6Z" transform="translate(390.428 336.07)" fill="#dedede"/>
        <path id="Path_58103" data-name="Path 58103" d="M59.091-199v-24.7H85.185a19.64,19.64,0,0,0,8.858-1.988,15.5,15.5,0,0,0,6.418-5.932,18.21,18.21,0,0,0,2.414-9.678,18.21,18.21,0,0,0-2.414-9.678,15.5,15.5,0,0,0-6.418-5.932,19.64,19.64,0,0,0-8.858-1.988H59.091v-24.7H90.9a50.373,50.373,0,0,1,22.844,5.084,39.552,39.552,0,0,1,16.112,14.524q5.943,9.44,5.943,22.682,0,13.1-5.943,22.621a39.376,39.376,0,0,1-16.112,14.6A50.373,50.373,0,0,1,90.9-199Zm6.965-84.6Z" transform="translate(600.204 706.543)" fill="#dedede"/>
        <rect id="Rectangle_33820" data-name="Rectangle 33820" width="32.163" height="131.983" transform="translate(277.609 486.03)" fill="#dedede"/>
        <rect id="Rectangle_33823" data-name="Rectangle 33823" width="32.163" height="131.983" transform="translate(251.6 305.678)" fill="#dedede"/>
        <rect id="Rectangle_33839" data-name="Rectangle 33839" width="32.163" height="131.983" transform="translate(383.972 5.086)" fill="#dedede"/>
        <rect id="Rectangle_33835" data-name="Rectangle 33835" width="32.163" height="131.983" transform="translate(48.579 444.421)" fill="#dedede"/>
        <rect id="Rectangle_33830" data-name="Rectangle 33830" width="32.163" height="131.983" transform="translate(527.437 419.068)" fill="#dedede"/>
        <rect id="Rectangle_33821" data-name="Rectangle 33821" width="55.059" height="28.322" transform="translate(173.907 409.339)" fill="#dedede"/>
        <rect id="Rectangle_33834" data-name="Rectangle 33834" width="55.059" height="28.322" transform="translate(448.03 158.688)" fill="#dedede"/>
        <rect id="Rectangle_33836" data-name="Rectangle 33836" width="55.059" height="28.322" transform="translate(48.318 158.688)" fill="#dedede"/>
        <rect id="Rectangle_33831" data-name="Rectangle 33831" width="55.059" height="28.322" transform="translate(586.378 429.494)" fill="#dedede"/>
        <rect id="Rectangle_33829" data-name="Rectangle 33829" width="55.059" height="28.322" transform="translate(503.089 338.86)" fill="#dedede"/>
        <path id="Path_58092" data-name="Path 58092" d="M3586.732-19948.324h39.222l-45.067,47.678H3539Z" transform="translate(-3365.093 20480.789)" fill="#dedede"/>
        <path id="Path_58112" data-name="Path 58112" d="M3586.732-19948.324h39.222l-45.067,47.678H3539Z" transform="translate(-3539 20558.498)" fill="#dedede"/>
        <path id="Path_58100" data-name="Path 58100" d="M3586.732-19948.324h39.222l-45.067,47.678H3539Z" transform="translate(-2889.954 20515.033)" fill="#dedede"/>
        <path id="Path_58098" data-name="Path 58098" d="M3586.732-19900.646h39.222l-45.067-47.678H3539Z" transform="translate(-3166.342 20177.127)" fill="#dedede"/>
        <path id="Path_58101" data-name="Path 58101" d="M3586.732-19900.646h39.222l-45.067-47.678H3539Z" transform="translate(-3008.353 20545.676)" fill="#dedede"/>
        <circle id="Ellipse_1088" data-name="Ellipse 1088" cx="36.5" cy="36.5" r="36.5" transform="translate(43 214.147)" fill="#dedede"/>
        <circle id="Ellipse_1089" data-name="Ellipse 1089" cx="36.5" cy="36.5" r="36.5" transform="translate(581 515.147)" fill="#dedede"/>
        <circle id="Ellipse_1090" data-name="Ellipse 1090" cx="36.5" cy="36.5" r="36.5" transform="translate(275 79.147)" fill="#dedede"/>
        <path id="Polygon_17" data-name="Polygon 17" d="M22,0,44,46H0Z" transform="translate(43 350.146)" fill="#dedede"/>
        <path id="Polygon_19" data-name="Polygon 19" d="M22,0,44,45H0Z" transform="translate(348 150.146)" fill="#dedede"/>
        <path id="Polygon_20" data-name="Polygon 20" d="M22,0,44,45H0Z" transform="translate(649 7.146)" fill="#dedede"/>
        <path id="Polygon_18" data-name="Polygon 18" d="M22,0,44,45H0Z" transform="translate(459 500.146)" fill="#dedede"/>
        <path id="Path_58099" data-name="Path 58099" d="M0,0H53.57L0,88.584Z" transform="translate(449.519 409.483)" fill="#dedede"/>
        <path id="Path_58102" data-name="Path 58102" d="M0,0H53.57L0,88.584Z" transform="translate(596.253 392.43) rotate(-90)" fill="#dedede"/>
        <path id="Path_58108" data-name="Path 58108" d="M0,0H53.57L0,88.584Z" transform="translate(172.277 97.862) rotate(-90)" fill="#dedede"/>
      </g>
      <g id="Pattern_base-2" data-name="Pattern base" transform="translate(-188 1774.363)">
        <path id="Path_58088-2" data-name="Path 58088" d="M59.091-151.919v-24.7H86.671q7.754,0,12.3-4.388a15.126,15.126,0,0,0,4.55-11.4,16.346,16.346,0,0,0-2.066-8.288,14.031,14.031,0,0,0-5.8-5.549,19.2,19.2,0,0,0-8.985-1.95H59.091v-23.866H84.628a16.8,16.8,0,0,0,10.726-3.3q4.179-3.3,4.179-10.122T95.354-255.6a16.8,16.8,0,0,0-10.726-3.3H59.091v-24.7H92.568q12.351,0,21.289,4.62a34.173,34.173,0,0,1,13.767,12.444,32.952,32.952,0,0,1,4.829,17.667q0,13.14-8.938,21.777T97.35-216.274l.139-11.283q18.8,2.229,28.881,12.165t10.076,24.98a36.135,36.135,0,0,1-5.549,19.85,37.848,37.848,0,0,1-15.671,13.674q-10.122,4.968-23.912,4.968ZM65.5-283.6v0Z" transform="translate(288.724 697.124)" fill="#dedede"/>
        <path id="Path_58110-2" data-name="Path 58110" d="M59.091-151.919v-24.7H86.671q7.754,0,12.3-4.388a15.126,15.126,0,0,0,4.55-11.4,16.346,16.346,0,0,0-2.066-8.288,14.031,14.031,0,0,0-5.8-5.549,19.2,19.2,0,0,0-8.985-1.95H59.091v-23.866H84.628a16.8,16.8,0,0,0,10.726-3.3q4.179-3.3,4.179-10.122T95.354-255.6a16.8,16.8,0,0,0-10.726-3.3H59.091v-24.7H92.568q12.351,0,21.289,4.62a34.173,34.173,0,0,1,13.767,12.444,32.952,32.952,0,0,1,4.829,17.667q0,13.14-8.938,21.777T97.35-216.274l.139-11.283q18.8,2.229,28.881,12.165t10.076,24.98a36.135,36.135,0,0,1-5.549,19.85,37.848,37.848,0,0,1-15.671,13.674q-10.122,4.968-23.912,4.968ZM65.5-283.6v0Z" transform="translate(-10.511 283.621)" fill="#dedede"/>
        <path id="Path_58089-2" data-name="Path 58089" d="M7.889-172.445l51.539-52.561a68.119,68.119,0,0,0,6.245-7.22,24.907,24.907,0,0,0,3.436-6.2,17.815,17.815,0,0,0,1.045-6.036q0-7.058-4.55-11.144t-12.026-4.086a22.1,22.1,0,0,0-12.862,4.016q-5.8,4.016-11.794,13.3L7.1-261.734a53.975,53.975,0,0,1,20.5-19.757Q40.067-288.2,56.132-288.2q14.3,0,24.725,5.177A37.608,37.608,0,0,1,96.923-268.3q5.641,9.542,5.641,22.543a49.013,49.013,0,0,1-2.02,14.371,46.08,46.08,0,0,1-6.524,13.024,98.264,98.264,0,0,1-11.84,13.558l-34.127,33.2Z" transform="translate(98.873 572.069)" fill="#dedede"/>
        <path id="Path_58105-2" data-name="Path 58105" d="M7.889-172.445l51.539-52.561a68.119,68.119,0,0,0,6.245-7.22,24.907,24.907,0,0,0,3.436-6.2,17.815,17.815,0,0,0,1.045-6.036q0-7.058-4.55-11.144t-12.026-4.086a22.1,22.1,0,0,0-12.862,4.016q-5.8,4.016-11.794,13.3L7.1-261.734a53.975,53.975,0,0,1,20.5-19.757Q40.067-288.2,56.132-288.2q14.3,0,24.725,5.177A37.608,37.608,0,0,1,96.923-268.3q5.641,9.542,5.641,22.543a49.013,49.013,0,0,1-2.02,14.371,46.08,46.08,0,0,1-6.524,13.024,98.264,98.264,0,0,1-11.84,13.558l-34.127,33.2Z" transform="translate(551.951 366.974)" fill="#dedede"/>
        <path id="Subtraction_64-2" data-name="Subtraction 64" d="M22.045,45.486h0l-.606,0L0,26.467A58.466,58.466,0,0,1,9.143,15,51.6,51.6,0,0,1,20.5,6.711,54.4,54.4,0,0,1,33.867,1.678,66.368,66.368,0,0,1,49.031,0,65.294,65.294,0,0,1,62.363,1.293,47.49,47.49,0,0,1,73.756,5.176a39.887,39.887,0,0,1,9.231,6.27,36.928,36.928,0,0,1,6.838,8.449A39.031,39.031,0,0,1,94.054,30.3a50.163,50.163,0,0,1,1.409,12.137c0,1.021-.027,2.045-.08,3.045H62.971c.055-.572.083-1.16.083-1.746a16.665,16.665,0,0,0-1.136-6.314,13.107,13.107,0,0,0-3.413-4.83,15.156,15.156,0,0,0-5.283-3.064,20.976,20.976,0,0,0-6.742-1.021,22.1,22.1,0,0,0-12.864,4.018c-3.78,2.617-7.672,6.979-11.57,12.959Z" transform="translate(115.708 456.62)" fill="#dedede"/>
        <path id="Subtraction_74-2" data-name="Subtraction 74" d="M22.045,45.486h0l-.606,0L0,26.467A58.466,58.466,0,0,1,9.143,15,51.6,51.6,0,0,1,20.5,6.711,54.4,54.4,0,0,1,33.867,1.678,66.368,66.368,0,0,1,49.031,0,65.294,65.294,0,0,1,62.363,1.293,47.49,47.49,0,0,1,73.756,5.176a39.887,39.887,0,0,1,9.231,6.27,36.928,36.928,0,0,1,6.838,8.449A39.031,39.031,0,0,1,94.054,30.3a50.163,50.163,0,0,1,1.409,12.137c0,1.021-.027,2.045-.08,3.045H62.971c.055-.572.083-1.16.083-1.746a16.665,16.665,0,0,0-1.136-6.314,13.107,13.107,0,0,0-3.413-4.83,15.156,15.156,0,0,0-5.283-3.064,20.976,20.976,0,0,0-6.742-1.021,22.1,22.1,0,0,0-12.864,4.018c-3.78,2.617-7.672,6.979-11.57,12.959Z" transform="translate(252.352 5.084)" fill="#dedede"/>
        <path id="Path_58090-2" data-name="Path 58090" d="M81.569-152.29a73.948,73.948,0,0,1-28.022-5.2,69.435,69.435,0,0,1-22.427-14.464,65.617,65.617,0,0,1-14.9-21.777,68.325,68.325,0,0,1-5.316-27,68.286,68.286,0,0,1,5.247-26.977,65.85,65.85,0,0,1,14.742-21.614A67.2,67.2,0,0,1,53.2-283.692a74.954,74.954,0,0,1,28-5.108,74.954,74.954,0,0,1,28,5.108,67.462,67.462,0,0,1,22.334,14.371A65.428,65.428,0,0,1,146.3-247.615a68.964,68.964,0,0,1,5.247,27.07,68.6,68.6,0,0,1-5.247,26.931,66.109,66.109,0,0,1-14.742,21.753,67.308,67.308,0,0,1-22.241,14.44A73.61,73.61,0,0,1,81.569-152.29ZM81.2-181.914a37.31,37.31,0,0,0,19.292-4.829,32.672,32.672,0,0,0,12.676-13.581,44.2,44.2,0,0,0,4.481-20.407,46,46,0,0,0-2.554-15.74,34.6,34.6,0,0,0-7.383-12.165A32.446,32.446,0,0,0,96.2-256.46a39.527,39.527,0,0,0-15-2.716,37.791,37.791,0,0,0-19.246,4.736,32.2,32.2,0,0,0-12.676,13.4A43.631,43.631,0,0,0,44.8-220.731a47.445,47.445,0,0,0,2.554,16,34.359,34.359,0,0,0,7.359,12.258,32.575,32.575,0,0,0,11.515,7.824A39.279,39.279,0,0,0,81.2-181.914Z" transform="translate(144.374 439.135)" fill="#dedede"/>
        <path id="Subtraction_65-2" data-name="Subtraction 65" d="M70.67,68.484a80.169,80.169,0,0,1-14.6-1.3,69.746,69.746,0,0,1-13.425-3.9,72.257,72.257,0,0,1-12.025-6.217,68.068,68.068,0,0,1-10.4-8.246A65.3,65.3,0,0,1,11.7,38.744a67.635,67.635,0,0,1-6.384-11.7A65.972,65.972,0,0,1,1.329,14.035,72.617,72.617,0,0,1,0,.043V0H33.893V.043a47.626,47.626,0,0,0,2.556,16,34.543,34.543,0,0,0,7.361,12.256,32.625,32.625,0,0,0,11.512,7.824A39.524,39.524,0,0,0,70.3,38.859a42.894,42.894,0,0,0,10.37-1.207,33.732,33.732,0,0,0,8.923-3.621,32.533,32.533,0,0,0,7.266-5.809,34.3,34.3,0,0,0,5.41-7.773,39.243,39.243,0,0,0,3.361-9.479A51.139,51.139,0,0,0,106.746.043V0h33.893V.018c0,.07,0,.141,0,.211a73.334,73.334,0,0,1-1.311,13.977,65.719,65.719,0,0,1-3.935,12.953,67.786,67.786,0,0,1-6.309,11.66,66.051,66.051,0,0,1-8.434,10.094,66.313,66.313,0,0,1-10.306,8.264,69.719,69.719,0,0,1-11.931,6.176A69.81,69.81,0,0,1,85.1,67.2,79.675,79.675,0,0,1,70.67,68.484Z" transform="translate(347.814 580.142)" fill="#dedede"/>
        <path id="Subtraction_67-2" data-name="Subtraction 67" d="M71.036,68.484h-.366a79.952,79.952,0,0,1-14.6-1.3,69.353,69.353,0,0,1-13.427-3.9,72.12,72.12,0,0,1-12.022-6.217,68.007,68.007,0,0,1-10.405-8.246A65.343,65.343,0,0,1,11.7,38.742a67.458,67.458,0,0,1-6.384-11.7A65.988,65.988,0,0,1,1.328,14.033,72.447,72.447,0,0,1,0,.043V0H33.893V.043a47.563,47.563,0,0,0,2.556,16,34.491,34.491,0,0,0,7.358,12.254A32.578,32.578,0,0,0,55.32,36.117a39.519,39.519,0,0,0,14.974,2.74c.276,0,.517,0,.741-.006V68.484Z" transform="translate(102.872 565.529)" fill="#dedede"/>
        <path id="Subtraction_71-2" data-name="Subtraction 71" d="M71.036,68.484h-.366a79.952,79.952,0,0,1-14.6-1.3,69.353,69.353,0,0,1-13.427-3.9,72.12,72.12,0,0,1-12.022-6.217,68.007,68.007,0,0,1-10.405-8.246A65.343,65.343,0,0,1,11.7,38.742a67.458,67.458,0,0,1-6.384-11.7A65.988,65.988,0,0,1,1.328,14.033,72.447,72.447,0,0,1,0,.043V0H33.893V.043a47.563,47.563,0,0,0,2.556,16,34.491,34.491,0,0,0,7.358,12.254A32.578,32.578,0,0,0,55.32,36.117a39.519,39.519,0,0,0,14.974,2.74c.276,0,.517,0,.741-.006V68.484Z" transform="translate(503.088 218.491)" fill="#dedede"/>
        <path id="Subtraction_69-2" data-name="Subtraction 69" d="M71.036,0H70.67a80.072,80.072,0,0,0-14.6,1.3A69.4,69.4,0,0,0,42.643,5.2,72.176,72.176,0,0,0,30.621,11.42a68.05,68.05,0,0,0-10.405,8.246A65.287,65.287,0,0,0,11.7,29.743a67.419,67.419,0,0,0-6.384,11.7A66.011,66.011,0,0,0,1.328,54.451,72.462,72.462,0,0,0,0,68.442v.042H33.893v-.042a47.56,47.56,0,0,1,2.556-16,34.5,34.5,0,0,1,7.358-12.255A32.575,32.575,0,0,1,55.32,32.368a39.495,39.495,0,0,1,14.975-2.742c.276,0,.517,0,.741.006V0Z" transform="translate(468.152 387.264) rotate(180)" fill="#dedede"/>
        <path id="Subtraction_76-2" data-name="Subtraction 76" d="M71.036,0H70.67a80.072,80.072,0,0,0-14.6,1.3A69.4,69.4,0,0,0,42.643,5.2,72.176,72.176,0,0,0,30.621,11.42a68.05,68.05,0,0,0-10.405,8.246A65.287,65.287,0,0,0,11.7,29.743a67.419,67.419,0,0,0-6.384,11.7A66.011,66.011,0,0,0,1.328,54.451,72.462,72.462,0,0,0,0,68.442v.042H33.893v-.042a47.56,47.56,0,0,1,2.556-16,34.5,34.5,0,0,1,7.358-12.255A32.575,32.575,0,0,1,55.32,32.368a39.495,39.495,0,0,1,14.975-2.742c.276,0,.517,0,.741.006V0Z" transform="translate(609.643 68.484) rotate(180)" fill="#dedede"/>
        <path id="Subtraction_73-2" data-name="Subtraction 73" d="M71.036,0H70.67a80.072,80.072,0,0,0-14.6,1.3A69.4,69.4,0,0,0,42.643,5.2,72.176,72.176,0,0,0,30.621,11.42a68.05,68.05,0,0,0-10.405,8.246A65.287,65.287,0,0,0,11.7,29.743a67.419,67.419,0,0,0-6.384,11.7A66.011,66.011,0,0,0,1.328,54.451,72.462,72.462,0,0,0,0,68.442v.042H33.893v-.042a47.56,47.56,0,0,1,2.556-16,34.5,34.5,0,0,1,7.358-12.255A32.575,32.575,0,0,1,55.32,32.368a39.495,39.495,0,0,1,14.975-2.742c.276,0,.517,0,.741.006V0Z" transform="translate(736 175.138) rotate(180)" fill="#dedede"/>
        <path id="Path_58094-2" data-name="Path 58094" d="M81.569-152.29a73.948,73.948,0,0,1-28.022-5.2,69.435,69.435,0,0,1-22.427-14.464,65.617,65.617,0,0,1-14.9-21.777,68.325,68.325,0,0,1-5.316-27,68.286,68.286,0,0,1,5.247-26.977,65.85,65.85,0,0,1,14.742-21.614A67.2,67.2,0,0,1,53.2-283.692a74.954,74.954,0,0,1,28-5.108,74.954,74.954,0,0,1,28,5.108,67.462,67.462,0,0,1,22.334,14.371A65.428,65.428,0,0,1,146.3-247.615a68.964,68.964,0,0,1,5.247,27.07,68.6,68.6,0,0,1-5.247,26.931,66.109,66.109,0,0,1-14.742,21.753,67.308,67.308,0,0,1-22.241,14.44A73.61,73.61,0,0,1,81.569-152.29ZM81.2-181.914a37.31,37.31,0,0,0,19.292-4.829,32.672,32.672,0,0,0,12.676-13.581,44.2,44.2,0,0,0,4.481-20.407,46,46,0,0,0-2.554-15.74,34.6,34.6,0,0,0-7.383-12.165A32.446,32.446,0,0,0,96.2-256.46a39.527,39.527,0,0,0-15-2.716,37.791,37.791,0,0,0-19.246,4.736,32.2,32.2,0,0,0-12.676,13.4A43.631,43.631,0,0,0,44.8-220.731a47.445,47.445,0,0,0,2.554,16,34.359,34.359,0,0,0,7.359,12.258,32.575,32.575,0,0,0,11.515,7.824A39.279,39.279,0,0,0,81.2-181.914Z" transform="translate(582.184 494.454)" fill="#dedede"/>
        <path id="Path_58091-2" data-name="Path 58091" d="M59.091-199v-24.7H85.185a19.64,19.64,0,0,0,8.858-1.988,15.5,15.5,0,0,0,6.418-5.932,18.21,18.21,0,0,0,2.414-9.678,18.21,18.21,0,0,0-2.414-9.678,15.5,15.5,0,0,0-6.418-5.932,19.64,19.64,0,0,0-8.858-1.988H59.091v-24.7H90.9a50.373,50.373,0,0,1,22.844,5.084,39.552,39.552,0,0,1,16.112,14.524q5.943,9.44,5.943,22.682,0,13.1-5.943,22.621a39.376,39.376,0,0,1-16.112,14.6A50.373,50.373,0,0,1,90.9-199Zm6.965-84.6Z" transform="translate(238.19 560.079)" fill="#dedede"/>
        <path id="Path_58106-2" data-name="Path 58106" d="M59.091-199v-24.7H85.185a19.64,19.64,0,0,0,8.858-1.988,15.5,15.5,0,0,0,6.418-5.932,18.21,18.21,0,0,0,2.414-9.678,18.21,18.21,0,0,0-2.414-9.678,15.5,15.5,0,0,0-6.418-5.932,19.64,19.64,0,0,0-8.858-1.988H59.091v-24.7H90.9a50.373,50.373,0,0,1,22.844,5.084,39.552,39.552,0,0,1,16.112,14.524q5.943,9.44,5.943,22.682,0,13.1-5.943,22.621a39.376,39.376,0,0,1-16.112,14.6A50.373,50.373,0,0,1,90.9-199Zm6.965-84.6Z" transform="translate(390.428 336.07)" fill="#dedede"/>
        <path id="Path_58103-2" data-name="Path 58103" d="M59.091-199v-24.7H85.185a19.64,19.64,0,0,0,8.858-1.988,15.5,15.5,0,0,0,6.418-5.932,18.21,18.21,0,0,0,2.414-9.678,18.21,18.21,0,0,0-2.414-9.678,15.5,15.5,0,0,0-6.418-5.932,19.64,19.64,0,0,0-8.858-1.988H59.091v-24.7H90.9a50.373,50.373,0,0,1,22.844,5.084,39.552,39.552,0,0,1,16.112,14.524q5.943,9.44,5.943,22.682,0,13.1-5.943,22.621a39.376,39.376,0,0,1-16.112,14.6A50.373,50.373,0,0,1,90.9-199Zm6.965-84.6Z" transform="translate(600.204 706.543)" fill="#dedede"/>
        <rect id="Rectangle_33820-2" data-name="Rectangle 33820" width="32.163" height="131.983" transform="translate(277.609 486.03)" fill="#dedede"/>
        <rect id="Rectangle_33823-2" data-name="Rectangle 33823" width="32.163" height="131.983" transform="translate(251.6 305.678)" fill="#dedede"/>
        <rect id="Rectangle_33839-2" data-name="Rectangle 33839" width="32.163" height="131.983" transform="translate(383.972 5.086)" fill="#dedede"/>
        <rect id="Rectangle_33835-2" data-name="Rectangle 33835" width="32.163" height="131.983" transform="translate(48.579 444.421)" fill="#dedede"/>
        <rect id="Rectangle_33830-2" data-name="Rectangle 33830" width="32.163" height="131.983" transform="translate(527.437 419.068)" fill="#dedede"/>
        <rect id="Rectangle_33821-2" data-name="Rectangle 33821" width="55.059" height="28.322" transform="translate(173.907 409.339)" fill="#dedede"/>
        <rect id="Rectangle_33834-2" data-name="Rectangle 33834" width="55.059" height="28.322" transform="translate(448.03 158.688)" fill="#dedede"/>
        <rect id="Rectangle_33836-2" data-name="Rectangle 33836" width="55.059" height="28.322" transform="translate(48.318 158.688)" fill="#dedede"/>
        <rect id="Rectangle_33831-2" data-name="Rectangle 33831" width="55.059" height="28.322" transform="translate(586.378 429.494)" fill="#dedede"/>
        <rect id="Rectangle_33829-2" data-name="Rectangle 33829" width="55.059" height="28.322" transform="translate(503.089 338.86)" fill="#dedede"/>
        <path id="Path_58092-2" data-name="Path 58092" d="M3586.732-19948.324h39.222l-45.067,47.678H3539Z" transform="translate(-3365.093 20480.789)" fill="#dedede"/>
        <path id="Path_58112-2" data-name="Path 58112" d="M3586.732-19948.324h39.222l-45.067,47.678H3539Z" transform="translate(-3539 20558.498)" fill="#dedede"/>
        <path id="Path_58100-2" data-name="Path 58100" d="M3586.732-19948.324h39.222l-45.067,47.678H3539Z" transform="translate(-2889.954 20515.033)" fill="#dedede"/>
        <path id="Path_58098-2" data-name="Path 58098" d="M3586.732-19900.646h39.222l-45.067-47.678H3539Z" transform="translate(-3166.342 20177.127)" fill="#dedede"/>
        <path id="Path_58101-2" data-name="Path 58101" d="M3586.732-19900.646h39.222l-45.067-47.678H3539Z" transform="translate(-3008.353 20545.676)" fill="#dedede"/>
        <circle id="Ellipse_1088-2" data-name="Ellipse 1088" cx="36.5" cy="36.5" r="36.5" transform="translate(43 214.147)" fill="#dedede"/>
        <circle id="Ellipse_1089-2" data-name="Ellipse 1089" cx="36.5" cy="36.5" r="36.5" transform="translate(581 515.147)" fill="#dedede"/>
        <circle id="Ellipse_1090-2" data-name="Ellipse 1090" cx="36.5" cy="36.5" r="36.5" transform="translate(275 79.147)" fill="#dedede"/>
        <path id="Polygon_17-2" data-name="Polygon 17" d="M22,0,44,46H0Z" transform="translate(43 350.146)" fill="#dedede"/>
        <path id="Polygon_19-2" data-name="Polygon 19" d="M22,0,44,45H0Z" transform="translate(348 150.146)" fill="#dedede"/>
        <path id="Polygon_20-2" data-name="Polygon 20" d="M22,0,44,45H0Z" transform="translate(649 7.146)" fill="#dedede"/>
        <path id="Polygon_18-2" data-name="Polygon 18" d="M22,0,44,45H0Z" transform="translate(459 500.146)" fill="#dedede"/>
        <path id="Path_58099-2" data-name="Path 58099" d="M0,0H53.57L0,88.584Z" transform="translate(449.519 409.483)" fill="#dedede"/>
        <path id="Path_58102-2" data-name="Path 58102" d="M0,0H53.57L0,88.584Z" transform="translate(596.253 392.43) rotate(-90)" fill="#dedede"/>
        <path id="Path_58108-2" data-name="Path 58108" d="M0,0H53.57L0,88.584Z" transform="translate(172.277 97.862) rotate(-90)" fill="#dedede"/>
      </g>
      <g id="Pattern_base-3" data-name="Pattern base" transform="translate(-924 1774.363)">
        <path id="Path_58088-3" data-name="Path 58088" d="M59.091-151.919v-24.7H86.671q7.754,0,12.3-4.388a15.126,15.126,0,0,0,4.55-11.4,16.346,16.346,0,0,0-2.066-8.288,14.031,14.031,0,0,0-5.8-5.549,19.2,19.2,0,0,0-8.985-1.95H59.091v-23.866H84.628a16.8,16.8,0,0,0,10.726-3.3q4.179-3.3,4.179-10.122T95.354-255.6a16.8,16.8,0,0,0-10.726-3.3H59.091v-24.7H92.568q12.351,0,21.289,4.62a34.173,34.173,0,0,1,13.767,12.444,32.952,32.952,0,0,1,4.829,17.667q0,13.14-8.938,21.777T97.35-216.274l.139-11.283q18.8,2.229,28.881,12.165t10.076,24.98a36.135,36.135,0,0,1-5.549,19.85,37.848,37.848,0,0,1-15.671,13.674q-10.122,4.968-23.912,4.968ZM65.5-283.6v0Z" transform="translate(288.724 697.124)" fill="#dedede"/>
        <path id="Path_58110-3" data-name="Path 58110" d="M59.091-151.919v-24.7H86.671q7.754,0,12.3-4.388a15.126,15.126,0,0,0,4.55-11.4,16.346,16.346,0,0,0-2.066-8.288,14.031,14.031,0,0,0-5.8-5.549,19.2,19.2,0,0,0-8.985-1.95H59.091v-23.866H84.628a16.8,16.8,0,0,0,10.726-3.3q4.179-3.3,4.179-10.122T95.354-255.6a16.8,16.8,0,0,0-10.726-3.3H59.091v-24.7H92.568q12.351,0,21.289,4.62a34.173,34.173,0,0,1,13.767,12.444,32.952,32.952,0,0,1,4.829,17.667q0,13.14-8.938,21.777T97.35-216.274l.139-11.283q18.8,2.229,28.881,12.165t10.076,24.98a36.135,36.135,0,0,1-5.549,19.85,37.848,37.848,0,0,1-15.671,13.674q-10.122,4.968-23.912,4.968ZM65.5-283.6v0Z" transform="translate(-10.511 283.621)" fill="#dedede"/>
        <path id="Path_58089-3" data-name="Path 58089" d="M7.889-172.445l51.539-52.561a68.119,68.119,0,0,0,6.245-7.22,24.907,24.907,0,0,0,3.436-6.2,17.815,17.815,0,0,0,1.045-6.036q0-7.058-4.55-11.144t-12.026-4.086a22.1,22.1,0,0,0-12.862,4.016q-5.8,4.016-11.794,13.3L7.1-261.734a53.975,53.975,0,0,1,20.5-19.757Q40.067-288.2,56.132-288.2q14.3,0,24.725,5.177A37.608,37.608,0,0,1,96.923-268.3q5.641,9.542,5.641,22.543a49.013,49.013,0,0,1-2.02,14.371,46.08,46.08,0,0,1-6.524,13.024,98.264,98.264,0,0,1-11.84,13.558l-34.127,33.2Z" transform="translate(98.873 572.069)" fill="#dedede"/>
        <path id="Path_58105-3" data-name="Path 58105" d="M7.889-172.445l51.539-52.561a68.119,68.119,0,0,0,6.245-7.22,24.907,24.907,0,0,0,3.436-6.2,17.815,17.815,0,0,0,1.045-6.036q0-7.058-4.55-11.144t-12.026-4.086a22.1,22.1,0,0,0-12.862,4.016q-5.8,4.016-11.794,13.3L7.1-261.734a53.975,53.975,0,0,1,20.5-19.757Q40.067-288.2,56.132-288.2q14.3,0,24.725,5.177A37.608,37.608,0,0,1,96.923-268.3q5.641,9.542,5.641,22.543a49.013,49.013,0,0,1-2.02,14.371,46.08,46.08,0,0,1-6.524,13.024,98.264,98.264,0,0,1-11.84,13.558l-34.127,33.2Z" transform="translate(551.951 366.974)" fill="#dedede"/>
        <path id="Subtraction_64-3" data-name="Subtraction 64" d="M22.045,45.486h0l-.606,0L0,26.467A58.466,58.466,0,0,1,9.143,15,51.6,51.6,0,0,1,20.5,6.711,54.4,54.4,0,0,1,33.867,1.678,66.368,66.368,0,0,1,49.031,0,65.294,65.294,0,0,1,62.363,1.293,47.49,47.49,0,0,1,73.756,5.176a39.887,39.887,0,0,1,9.231,6.27,36.928,36.928,0,0,1,6.838,8.449A39.031,39.031,0,0,1,94.054,30.3a50.163,50.163,0,0,1,1.409,12.137c0,1.021-.027,2.045-.08,3.045H62.971c.055-.572.083-1.16.083-1.746a16.665,16.665,0,0,0-1.136-6.314,13.107,13.107,0,0,0-3.413-4.83,15.156,15.156,0,0,0-5.283-3.064,20.976,20.976,0,0,0-6.742-1.021,22.1,22.1,0,0,0-12.864,4.018c-3.78,2.617-7.672,6.979-11.57,12.959Z" transform="translate(115.708 456.62)" fill="#dedede"/>
        <path id="Subtraction_74-3" data-name="Subtraction 74" d="M22.045,45.486h0l-.606,0L0,26.467A58.466,58.466,0,0,1,9.143,15,51.6,51.6,0,0,1,20.5,6.711,54.4,54.4,0,0,1,33.867,1.678,66.368,66.368,0,0,1,49.031,0,65.294,65.294,0,0,1,62.363,1.293,47.49,47.49,0,0,1,73.756,5.176a39.887,39.887,0,0,1,9.231,6.27,36.928,36.928,0,0,1,6.838,8.449A39.031,39.031,0,0,1,94.054,30.3a50.163,50.163,0,0,1,1.409,12.137c0,1.021-.027,2.045-.08,3.045H62.971c.055-.572.083-1.16.083-1.746a16.665,16.665,0,0,0-1.136-6.314,13.107,13.107,0,0,0-3.413-4.83,15.156,15.156,0,0,0-5.283-3.064,20.976,20.976,0,0,0-6.742-1.021,22.1,22.1,0,0,0-12.864,4.018c-3.78,2.617-7.672,6.979-11.57,12.959Z" transform="translate(252.352 5.084)" fill="#dedede"/>
        <path id="Path_58090-3" data-name="Path 58090" d="M81.569-152.29a73.948,73.948,0,0,1-28.022-5.2,69.435,69.435,0,0,1-22.427-14.464,65.617,65.617,0,0,1-14.9-21.777,68.325,68.325,0,0,1-5.316-27,68.286,68.286,0,0,1,5.247-26.977,65.85,65.85,0,0,1,14.742-21.614A67.2,67.2,0,0,1,53.2-283.692a74.954,74.954,0,0,1,28-5.108,74.954,74.954,0,0,1,28,5.108,67.462,67.462,0,0,1,22.334,14.371A65.428,65.428,0,0,1,146.3-247.615a68.964,68.964,0,0,1,5.247,27.07,68.6,68.6,0,0,1-5.247,26.931,66.109,66.109,0,0,1-14.742,21.753,67.308,67.308,0,0,1-22.241,14.44A73.61,73.61,0,0,1,81.569-152.29ZM81.2-181.914a37.31,37.31,0,0,0,19.292-4.829,32.672,32.672,0,0,0,12.676-13.581,44.2,44.2,0,0,0,4.481-20.407,46,46,0,0,0-2.554-15.74,34.6,34.6,0,0,0-7.383-12.165A32.446,32.446,0,0,0,96.2-256.46a39.527,39.527,0,0,0-15-2.716,37.791,37.791,0,0,0-19.246,4.736,32.2,32.2,0,0,0-12.676,13.4A43.631,43.631,0,0,0,44.8-220.731a47.445,47.445,0,0,0,2.554,16,34.359,34.359,0,0,0,7.359,12.258,32.575,32.575,0,0,0,11.515,7.824A39.279,39.279,0,0,0,81.2-181.914Z" transform="translate(144.374 439.135)" fill="#dedede"/>
        <path id="Subtraction_65-3" data-name="Subtraction 65" d="M70.67,68.484a80.169,80.169,0,0,1-14.6-1.3,69.746,69.746,0,0,1-13.425-3.9,72.257,72.257,0,0,1-12.025-6.217,68.068,68.068,0,0,1-10.4-8.246A65.3,65.3,0,0,1,11.7,38.744a67.635,67.635,0,0,1-6.384-11.7A65.972,65.972,0,0,1,1.329,14.035,72.617,72.617,0,0,1,0,.043V0H33.893V.043a47.626,47.626,0,0,0,2.556,16,34.543,34.543,0,0,0,7.361,12.256,32.625,32.625,0,0,0,11.512,7.824A39.524,39.524,0,0,0,70.3,38.859a42.894,42.894,0,0,0,10.37-1.207,33.732,33.732,0,0,0,8.923-3.621,32.533,32.533,0,0,0,7.266-5.809,34.3,34.3,0,0,0,5.41-7.773,39.243,39.243,0,0,0,3.361-9.479A51.139,51.139,0,0,0,106.746.043V0h33.893V.018c0,.07,0,.141,0,.211a73.334,73.334,0,0,1-1.311,13.977,65.719,65.719,0,0,1-3.935,12.953,67.786,67.786,0,0,1-6.309,11.66,66.051,66.051,0,0,1-8.434,10.094,66.313,66.313,0,0,1-10.306,8.264,69.719,69.719,0,0,1-11.931,6.176A69.81,69.81,0,0,1,85.1,67.2,79.675,79.675,0,0,1,70.67,68.484Z" transform="translate(347.814 580.142)" fill="#dedede"/>
        <path id="Subtraction_67-3" data-name="Subtraction 67" d="M71.036,68.484h-.366a79.952,79.952,0,0,1-14.6-1.3,69.353,69.353,0,0,1-13.427-3.9,72.12,72.12,0,0,1-12.022-6.217,68.007,68.007,0,0,1-10.405-8.246A65.343,65.343,0,0,1,11.7,38.742a67.458,67.458,0,0,1-6.384-11.7A65.988,65.988,0,0,1,1.328,14.033,72.447,72.447,0,0,1,0,.043V0H33.893V.043a47.563,47.563,0,0,0,2.556,16,34.491,34.491,0,0,0,7.358,12.254A32.578,32.578,0,0,0,55.32,36.117a39.519,39.519,0,0,0,14.974,2.74c.276,0,.517,0,.741-.006V68.484Z" transform="translate(102.872 565.529)" fill="#dedede"/>
        <path id="Subtraction_71-3" data-name="Subtraction 71" d="M71.036,68.484h-.366a79.952,79.952,0,0,1-14.6-1.3,69.353,69.353,0,0,1-13.427-3.9,72.12,72.12,0,0,1-12.022-6.217,68.007,68.007,0,0,1-10.405-8.246A65.343,65.343,0,0,1,11.7,38.742a67.458,67.458,0,0,1-6.384-11.7A65.988,65.988,0,0,1,1.328,14.033,72.447,72.447,0,0,1,0,.043V0H33.893V.043a47.563,47.563,0,0,0,2.556,16,34.491,34.491,0,0,0,7.358,12.254A32.578,32.578,0,0,0,55.32,36.117a39.519,39.519,0,0,0,14.974,2.74c.276,0,.517,0,.741-.006V68.484Z" transform="translate(503.088 218.491)" fill="#dedede"/>
        <path id="Subtraction_69-3" data-name="Subtraction 69" d="M71.036,0H70.67a80.072,80.072,0,0,0-14.6,1.3A69.4,69.4,0,0,0,42.643,5.2,72.176,72.176,0,0,0,30.621,11.42a68.05,68.05,0,0,0-10.405,8.246A65.287,65.287,0,0,0,11.7,29.743a67.419,67.419,0,0,0-6.384,11.7A66.011,66.011,0,0,0,1.328,54.451,72.462,72.462,0,0,0,0,68.442v.042H33.893v-.042a47.56,47.56,0,0,1,2.556-16,34.5,34.5,0,0,1,7.358-12.255A32.575,32.575,0,0,1,55.32,32.368a39.495,39.495,0,0,1,14.975-2.742c.276,0,.517,0,.741.006V0Z" transform="translate(468.152 387.264) rotate(180)" fill="#dedede"/>
        <path id="Subtraction_76-3" data-name="Subtraction 76" d="M71.036,0H70.67a80.072,80.072,0,0,0-14.6,1.3A69.4,69.4,0,0,0,42.643,5.2,72.176,72.176,0,0,0,30.621,11.42a68.05,68.05,0,0,0-10.405,8.246A65.287,65.287,0,0,0,11.7,29.743a67.419,67.419,0,0,0-6.384,11.7A66.011,66.011,0,0,0,1.328,54.451,72.462,72.462,0,0,0,0,68.442v.042H33.893v-.042a47.56,47.56,0,0,1,2.556-16,34.5,34.5,0,0,1,7.358-12.255A32.575,32.575,0,0,1,55.32,32.368a39.495,39.495,0,0,1,14.975-2.742c.276,0,.517,0,.741.006V0Z" transform="translate(609.643 68.484) rotate(180)" fill="#dedede"/>
        <path id="Subtraction_73-3" data-name="Subtraction 73" d="M71.036,0H70.67a80.072,80.072,0,0,0-14.6,1.3A69.4,69.4,0,0,0,42.643,5.2,72.176,72.176,0,0,0,30.621,11.42a68.05,68.05,0,0,0-10.405,8.246A65.287,65.287,0,0,0,11.7,29.743a67.419,67.419,0,0,0-6.384,11.7A66.011,66.011,0,0,0,1.328,54.451,72.462,72.462,0,0,0,0,68.442v.042H33.893v-.042a47.56,47.56,0,0,1,2.556-16,34.5,34.5,0,0,1,7.358-12.255A32.575,32.575,0,0,1,55.32,32.368a39.495,39.495,0,0,1,14.975-2.742c.276,0,.517,0,.741.006V0Z" transform="translate(736 175.138) rotate(180)" fill="#dedede"/>
        <path id="Path_58094-3" data-name="Path 58094" d="M81.569-152.29a73.948,73.948,0,0,1-28.022-5.2,69.435,69.435,0,0,1-22.427-14.464,65.617,65.617,0,0,1-14.9-21.777,68.325,68.325,0,0,1-5.316-27,68.286,68.286,0,0,1,5.247-26.977,65.85,65.85,0,0,1,14.742-21.614A67.2,67.2,0,0,1,53.2-283.692a74.954,74.954,0,0,1,28-5.108,74.954,74.954,0,0,1,28,5.108,67.462,67.462,0,0,1,22.334,14.371A65.428,65.428,0,0,1,146.3-247.615a68.964,68.964,0,0,1,5.247,27.07,68.6,68.6,0,0,1-5.247,26.931,66.109,66.109,0,0,1-14.742,21.753,67.308,67.308,0,0,1-22.241,14.44A73.61,73.61,0,0,1,81.569-152.29ZM81.2-181.914a37.31,37.31,0,0,0,19.292-4.829,32.672,32.672,0,0,0,12.676-13.581,44.2,44.2,0,0,0,4.481-20.407,46,46,0,0,0-2.554-15.74,34.6,34.6,0,0,0-7.383-12.165A32.446,32.446,0,0,0,96.2-256.46a39.527,39.527,0,0,0-15-2.716,37.791,37.791,0,0,0-19.246,4.736,32.2,32.2,0,0,0-12.676,13.4A43.631,43.631,0,0,0,44.8-220.731a47.445,47.445,0,0,0,2.554,16,34.359,34.359,0,0,0,7.359,12.258,32.575,32.575,0,0,0,11.515,7.824A39.279,39.279,0,0,0,81.2-181.914Z" transform="translate(582.184 494.454)" fill="#dedede"/>
        <path id="Path_58091-3" data-name="Path 58091" d="M59.091-199v-24.7H85.185a19.64,19.64,0,0,0,8.858-1.988,15.5,15.5,0,0,0,6.418-5.932,18.21,18.21,0,0,0,2.414-9.678,18.21,18.21,0,0,0-2.414-9.678,15.5,15.5,0,0,0-6.418-5.932,19.64,19.64,0,0,0-8.858-1.988H59.091v-24.7H90.9a50.373,50.373,0,0,1,22.844,5.084,39.552,39.552,0,0,1,16.112,14.524q5.943,9.44,5.943,22.682,0,13.1-5.943,22.621a39.376,39.376,0,0,1-16.112,14.6A50.373,50.373,0,0,1,90.9-199Zm6.965-84.6Z" transform="translate(238.19 560.079)" fill="#dedede"/>
        <path id="Path_58106-3" data-name="Path 58106" d="M59.091-199v-24.7H85.185a19.64,19.64,0,0,0,8.858-1.988,15.5,15.5,0,0,0,6.418-5.932,18.21,18.21,0,0,0,2.414-9.678,18.21,18.21,0,0,0-2.414-9.678,15.5,15.5,0,0,0-6.418-5.932,19.64,19.64,0,0,0-8.858-1.988H59.091v-24.7H90.9a50.373,50.373,0,0,1,22.844,5.084,39.552,39.552,0,0,1,16.112,14.524q5.943,9.44,5.943,22.682,0,13.1-5.943,22.621a39.376,39.376,0,0,1-16.112,14.6A50.373,50.373,0,0,1,90.9-199Zm6.965-84.6Z" transform="translate(390.428 336.07)" fill="#dedede"/>
        <path id="Path_58103-3" data-name="Path 58103" d="M59.091-199v-24.7H85.185a19.64,19.64,0,0,0,8.858-1.988,15.5,15.5,0,0,0,6.418-5.932,18.21,18.21,0,0,0,2.414-9.678,18.21,18.21,0,0,0-2.414-9.678,15.5,15.5,0,0,0-6.418-5.932,19.64,19.64,0,0,0-8.858-1.988H59.091v-24.7H90.9a50.373,50.373,0,0,1,22.844,5.084,39.552,39.552,0,0,1,16.112,14.524q5.943,9.44,5.943,22.682,0,13.1-5.943,22.621a39.376,39.376,0,0,1-16.112,14.6A50.373,50.373,0,0,1,90.9-199Zm6.965-84.6Z" transform="translate(600.204 706.543)" fill="#dedede"/>
        <rect id="Rectangle_33820-3" data-name="Rectangle 33820" width="32.163" height="131.983" transform="translate(277.609 486.03)" fill="#dedede"/>
        <rect id="Rectangle_33823-3" data-name="Rectangle 33823" width="32.163" height="131.983" transform="translate(251.6 305.678)" fill="#dedede"/>
        <rect id="Rectangle_33839-3" data-name="Rectangle 33839" width="32.163" height="131.983" transform="translate(383.972 5.086)" fill="#dedede"/>
        <rect id="Rectangle_33835-3" data-name="Rectangle 33835" width="32.163" height="131.983" transform="translate(48.579 444.421)" fill="#dedede"/>
        <rect id="Rectangle_33830-3" data-name="Rectangle 33830" width="32.163" height="131.983" transform="translate(527.437 419.068)" fill="#dedede"/>
        <rect id="Rectangle_33821-3" data-name="Rectangle 33821" width="55.059" height="28.322" transform="translate(173.907 409.339)" fill="#dedede"/>
        <rect id="Rectangle_33834-3" data-name="Rectangle 33834" width="55.059" height="28.322" transform="translate(448.03 158.688)" fill="#dedede"/>
        <rect id="Rectangle_33836-3" data-name="Rectangle 33836" width="55.059" height="28.322" transform="translate(48.318 158.688)" fill="#dedede"/>
        <rect id="Rectangle_33831-3" data-name="Rectangle 33831" width="55.059" height="28.322" transform="translate(586.378 429.494)" fill="#dedede"/>
        <rect id="Rectangle_33829-3" data-name="Rectangle 33829" width="55.059" height="28.322" transform="translate(503.089 338.86)" fill="#dedede"/>
        <path id="Path_58092-3" data-name="Path 58092" d="M3586.732-19948.324h39.222l-45.067,47.678H3539Z" transform="translate(-3365.093 20480.789)" fill="#dedede"/>
        <path id="Path_58112-3" data-name="Path 58112" d="M3586.732-19948.324h39.222l-45.067,47.678H3539Z" transform="translate(-3539 20558.498)" fill="#dedede"/>
        <path id="Path_58100-3" data-name="Path 58100" d="M3586.732-19948.324h39.222l-45.067,47.678H3539Z" transform="translate(-2889.954 20515.033)" fill="#dedede"/>
        <path id="Path_58098-3" data-name="Path 58098" d="M3586.732-19900.646h39.222l-45.067-47.678H3539Z" transform="translate(-3166.342 20177.127)" fill="#dedede"/>
        <path id="Path_58101-3" data-name="Path 58101" d="M3586.732-19900.646h39.222l-45.067-47.678H3539Z" transform="translate(-3008.353 20545.676)" fill="#dedede"/>
        <circle id="Ellipse_1088-3" data-name="Ellipse 1088" cx="36.5" cy="36.5" r="36.5" transform="translate(43 214.147)" fill="#dedede"/>
        <circle id="Ellipse_1089-3" data-name="Ellipse 1089" cx="36.5" cy="36.5" r="36.5" transform="translate(581 515.147)" fill="#dedede"/>
        <circle id="Ellipse_1090-3" data-name="Ellipse 1090" cx="36.5" cy="36.5" r="36.5" transform="translate(275 79.147)" fill="#dedede"/>
        <path id="Polygon_17-3" data-name="Polygon 17" d="M22,0,44,46H0Z" transform="translate(43 350.146)" fill="#dedede"/>
        <path id="Polygon_19-3" data-name="Polygon 19" d="M22,0,44,45H0Z" transform="translate(348 150.146)" fill="#dedede"/>
        <path id="Polygon_20-3" data-name="Polygon 20" d="M22,0,44,45H0Z" transform="translate(649 7.146)" fill="#dedede"/>
        <path id="Polygon_18-3" data-name="Polygon 18" d="M22,0,44,45H0Z" transform="translate(459 500.146)" fill="#dedede"/>
        <path id="Path_58099-3" data-name="Path 58099" d="M0,0H53.57L0,88.584Z" transform="translate(449.519 409.483)" fill="#dedede"/>
        <path id="Path_58102-3" data-name="Path 58102" d="M0,0H53.57L0,88.584Z" transform="translate(596.253 392.43) rotate(-90)" fill="#dedede"/>
        <path id="Path_58108-3" data-name="Path 58108" d="M0,0H53.57L0,88.584Z" transform="translate(172.277 97.862) rotate(-90)" fill="#dedede"/>
      </g>
    </g>
  </g>
</svg>
