<svg xmlns="http://www.w3.org/2000/svg" width="9.825" height="13.186" viewBox="0 0 9.825 13.186">
  <path id="Icon_awesome-yelp" data-name="Icon awesome-yelp" d="M1.15,6.19,3.715,7.441a.588.588,0,0,1-.116,1.1L.83,9.232a.587.587,0,0,1-.727-.5,5.078,5.078,0,0,1,.232-2.2.587.587,0,0,1,.814-.34Zm1.133,6.162a5.137,5.137,0,0,0,2.045.827.587.587,0,0,0,.686-.558l.1-2.854a.589.589,0,0,0-1.025-.415L2.178,11.473a.588.588,0,0,0,.105.878ZM6.026,9.52l1.515,2.421a.591.591,0,0,0,.876.142,5.109,5.109,0,0,0,1.358-1.741.592.592,0,0,0-.35-.812L6.709,8.647a.59.59,0,0,0-.683.873Zm3.82-3.405a5.085,5.085,0,0,0-1.3-1.785.588.588,0,0,0-.876.113L6.075,6.81a.588.588,0,0,0,.649.894l2.746-.786a.592.592,0,0,0,.376-.8ZM1.644.778a.589.589,0,0,0-.255.824L4.071,6.249a.588.588,0,0,0,1.1-.294V.59A.584.584,0,0,0,4.537,0,8.251,8.251,0,0,0,1.644.778Z" transform="translate(-0.071 0)"/>
</svg>
