<svg xmlns="http://www.w3.org/2000/svg" width="109.386" height="41.657" viewBox="0 0 109.386 41.657">
  <g id="accent-white-arrows">
    <path d="M57.113,48.09,36.283,27.262H54.846L68.4,40.819a10.283,10.283,0,0,1,0,14.542L54.846,68.918H36.283Z" transform="translate(37.97 -27.262)" fill="#f0f8fd"/>
    <path d="M40.085,48.091,19.257,27.263H37.82s7.55,7.548,13.557,13.557a10.281,10.281,0,0,1,0,14.542L37.82,68.919H19.257Z" transform="translate(19.248 -27.262)" fill="#f0f8fd" opacity="0.597"/>
    <path d="M23.126,48.091.918,27.263H19.481L33.038,40.82a10.281,10.281,0,0,1,0,14.542L19.481,68.919H.918Z" transform="translate(-0.918 -27.262)" fill="#f0f8fd" opacity="0.198"/>
  </g>
</svg>